<svg width="64" height="64" viewBox="0 0 64 64" fill="none" xmlns="http://www.w3.org/2000/svg">
<path d="M29.3333 40C17.5513 40 8 36.4184 8 32" stroke="#333333" stroke-width="4" stroke-linecap="round"/>
<path d="M50.6667 13.3333V30.6666M8 13.3333V50.6666C8 55.085 17.5513 58.6666 29.3333 58.6666C29.7811 58.6666 30.2256 58.6616 30.6667 58.6512" stroke="#333333" stroke-width="4" stroke-linecap="round"/>
<path d="M29.3333 21.3333C41.1154 21.3333 50.6667 17.7516 50.6667 13.3333C50.6667 8.91504 41.1154 5.33331 29.3333 5.33331C17.5513 5.33331 8 8.91504 8 13.3333C8 17.7516 17.5513 21.3333 29.3333 21.3333Z" stroke="#333333" stroke-width="4"/>
<path d="M18.667 21.3334V26.6667" stroke="#333333" stroke-width="4" stroke-linecap="round"/>
<path d="M18.667 40V45.3333" stroke="#333333" stroke-width="4" stroke-linecap="round"/>
<path d="M45.3337 44.4446V48M45.3337 48V51.5555M45.3337 48H48.8891M45.3337 48H41.7782M56.0003 48C56.0003 53.891 51.2246 58.6667 45.3337 58.6667C39.4427 58.6667 34.667 53.891 34.667 48C34.667 42.1091 39.4427 37.3334 45.3337 37.3334C51.2246 37.3334 56.0003 42.1091 56.0003 48Z" stroke="#333333" stroke-width="4" stroke-linecap="round"/>
</svg>
