<svg width="297" height="59" viewBox="0 0 297 59" fill="none" xmlns="http://www.w3.org/2000/svg">
<path fill-rule="evenodd" clip-rule="evenodd" d="M37.5745 17.2358C35.1566 15.6151 32.3139 14.75 29.4059 14.75V0C35.2218 0 40.9072 1.73015 45.743 4.97165C50.5788 8.21314 54.3478 12.8204 56.5735 18.2108C58.7991 23.6012 59.3815 29.5327 58.2468 35.2552C57.1122 40.9776 54.3116 46.234 50.199 50.3596C46.0866 54.4853 40.8469 57.2949 35.1427 58.4332C29.4386 59.5714 23.5259 58.9872 18.1527 56.7545C12.7795 54.5216 8.18695 50.7406 4.9558 45.8893C1.72463 41.038 0 35.3345 0 29.5H14.703C14.703 32.4173 15.5653 35.269 17.1809 37.6947C18.7964 40.1203 21.0927 42.0108 23.7794 43.1272C26.4659 44.2437 29.4223 44.5357 32.2743 43.9665C35.1264 43.3975 37.7462 41.9927 39.8026 39.9299C41.8588 37.8669 43.2591 35.2388 43.8263 32.3776C44.3937 29.5164 44.1026 26.5506 42.9897 23.8555C41.8769 21.1602 39.9924 18.8565 37.5745 17.2358Z" fill="white"/>
<path fill-rule="evenodd" clip-rule="evenodd" d="M14.703 7.79527e-06C14.703 1.93701 14.3227 3.85504 13.5838 5.6446C12.8449 7.43414 11.7619 9.06016 10.3966 10.4298C9.03128 11.7995 7.41044 12.886 5.62658 13.6272C3.84273 14.3685 1.93081 14.75 6.42681e-07 14.75L0 29.5C3.86164 29.5 7.68547 28.737 11.2532 27.2545C14.8209 25.7719 18.0626 23.599 20.7931 20.8596C23.5237 18.1204 25.6898 14.8683 27.1676 11.2892C28.6453 7.71005 29.4059 3.87399 29.4059 0L14.703 7.79527e-06Z" fill="white"/>
<path d="M184.697 21.3174H177.563V44.0505H184.697V21.3174Z" fill="white"/>
<path d="M178.357 17.0607C179.103 17.8091 180.035 18.1833 181.154 18.1833C182.273 18.1833 183.19 17.8091 183.905 17.0607C184.621 16.2811 184.978 15.3456 184.978 14.2541C184.978 13.1315 184.621 12.196 183.905 11.4476C183.19 10.6991 182.273 10.325 181.154 10.325C180.035 10.325 179.103 10.6991 178.357 11.4476C177.641 12.196 177.284 13.1315 177.284 14.2541C177.284 15.3456 177.641 16.2811 178.357 17.0607Z" fill="white"/>
<path d="M75.2148 44.0506V11.0266H82.5353V37.5955H97.1296V44.0506H75.2148Z" fill="white"/>
<path fill-rule="evenodd" clip-rule="evenodd" d="M110.313 44.565C107.981 44.565 105.868 44.0505 103.971 43.0214C102.106 41.9612 100.63 40.5267 99.5418 38.7179C98.4539 36.9093 97.9099 34.8823 97.9099 32.6371C97.9099 30.3919 98.4539 28.3805 99.5418 26.603C100.63 24.8255 102.106 23.4222 103.971 22.3932C105.836 21.3329 107.95 20.8027 110.313 20.8027C112.675 20.8027 114.789 21.3174 116.654 22.3463C118.519 23.3754 119.996 24.7944 121.083 26.603C122.171 28.3805 122.715 30.3919 122.715 32.6371C122.715 34.8823 122.171 36.9093 121.083 38.7179C119.996 40.5267 118.519 41.9612 116.654 43.0214C114.789 44.0505 112.675 44.565 110.313 44.565ZM110.313 38.0632C111.338 38.0632 112.24 37.8449 113.017 37.4083C113.794 36.9406 114.385 36.3013 114.789 35.4905C115.224 34.6486 115.442 33.6973 115.442 32.6371C115.442 31.5769 115.224 30.6569 114.789 29.8774C114.354 29.0666 113.748 28.4429 112.97 28.0063C112.224 27.5385 111.338 27.3047 110.313 27.3047C109.318 27.3047 108.432 27.5385 107.655 28.0063C106.878 28.4429 106.272 29.0666 105.836 29.8774C105.401 30.6882 105.184 31.6236 105.184 32.6839C105.184 33.713 105.401 34.6486 105.836 35.4905C106.272 36.3013 106.878 36.9406 107.655 37.4083C108.432 37.8449 109.318 38.0632 110.313 38.0632Z" fill="white"/>
<path fill-rule="evenodd" clip-rule="evenodd" d="M128.365 52.9381C130.261 53.8111 132.453 54.2477 134.94 54.2477C137.364 54.2477 139.525 53.7644 141.421 52.7977C143.317 51.831 144.809 50.4902 145.897 48.775C146.985 47.0599 147.53 45.033 147.53 42.6941V21.3175H140.535V22.8448C140.015 22.4056 139.424 22.0368 138.763 21.7384C137.551 21.1459 136.167 20.8496 134.613 20.8496C132.531 20.8496 130.681 21.3486 129.065 22.3464C127.448 23.3132 126.174 24.6541 125.241 26.3692C124.309 28.0532 123.843 29.9554 123.843 32.076C123.843 34.1653 124.309 36.0675 125.241 37.7826C126.174 39.4977 127.448 40.8543 129.065 41.8521C130.681 42.85 132.531 43.349 134.613 43.349C136.136 43.349 137.52 43.0528 138.763 42.4603C139.365 42.1732 139.909 41.835 140.395 41.4455V42.8812C140.395 44.4716 139.882 45.7034 138.856 46.5766C137.862 47.4498 136.478 47.8862 134.707 47.8862C133.277 47.8862 132.049 47.6368 131.023 47.1378C130.028 46.639 129.127 45.906 128.319 44.9393L123.936 49.3363C125.024 50.8955 126.5 52.0962 128.365 52.9381ZM138.53 36.3325C137.815 36.7691 136.96 36.9874 135.965 36.9874C134.971 36.9874 134.1 36.7691 133.354 36.3325C132.639 35.8959 132.08 35.3034 131.676 34.555C131.272 33.7755 131.07 32.949 131.07 32.076C131.07 31.1404 131.272 30.2985 131.676 29.55C132.08 28.8016 132.655 28.2091 133.401 27.7725C134.147 27.3359 135.002 27.1176 135.965 27.1176C136.96 27.1176 137.815 27.3359 138.53 27.7725C139.276 28.2091 139.835 28.8016 140.209 29.55C140.613 30.2985 140.815 31.1404 140.815 32.076C140.815 33.0114 140.613 33.8534 140.209 34.6018C139.835 35.3191 139.276 35.8959 138.53 36.3325Z" fill="white"/>
<path fill-rule="evenodd" clip-rule="evenodd" d="M162.543 44.565C160.211 44.565 158.097 44.0505 156.201 43.0214C154.336 41.9612 152.859 40.5267 151.771 38.7179C150.683 36.9093 150.139 34.8823 150.139 32.6371C150.139 30.3919 150.683 28.3805 151.771 26.603C152.859 24.8255 154.336 23.4222 156.201 22.3932C158.066 21.3329 160.18 20.8027 162.543 20.8027C164.904 20.8027 167.018 21.3174 168.883 22.3463C170.749 23.3754 172.225 24.7944 173.313 26.603C174.401 28.3805 174.945 30.3919 174.945 32.6371C174.945 34.8823 174.401 36.9093 173.313 38.7179C172.225 40.5267 170.749 41.9612 168.883 43.0214C167.018 44.0505 164.904 44.565 162.543 44.565ZM162.543 38.0632C163.568 38.0632 164.469 37.8449 165.247 37.4083C166.023 36.9406 166.614 36.3013 167.018 35.4905C167.454 34.6486 167.671 33.6973 167.671 32.6371C167.671 31.5769 167.454 30.6569 167.018 29.8774C166.583 29.0666 165.977 28.4429 165.2 28.0063C164.454 27.5385 163.568 27.3047 162.543 27.3047C161.547 27.3047 160.661 27.5385 159.884 28.0063C159.107 28.4429 158.501 29.0666 158.066 29.8774C157.631 30.6882 157.413 31.6236 157.413 32.6839C157.413 33.713 157.631 34.6486 158.066 35.4905C158.501 36.3013 159.107 36.9406 159.884 37.4083C160.661 37.8449 161.547 38.0632 162.543 38.0632Z" fill="white"/>
<path fill-rule="evenodd" clip-rule="evenodd" d="M201.844 44.5183C200.322 44.5183 198.922 44.2222 197.648 43.6297C196.977 43.3178 196.371 42.9456 195.83 42.5128V53.6397H188.789V21.3175H195.923V22.8864C196.44 22.4618 197.015 22.0947 197.648 21.7852C198.922 21.1614 200.322 20.8496 201.844 20.8496C203.989 20.8496 205.886 21.3642 207.532 22.3933C209.211 23.4223 210.517 24.8256 211.449 26.6031C212.414 28.3807 212.895 30.4076 212.895 32.684C212.895 34.9605 212.414 36.9874 211.449 38.765C210.517 40.5425 209.211 41.9457 207.532 42.9748C205.886 44.0039 203.989 44.5183 201.844 44.5183ZM200.54 38.0633C201.564 38.0633 202.451 37.8294 203.197 37.3616C203.974 36.8939 204.58 36.2545 205.015 35.4438C205.45 34.633 205.668 33.7131 205.668 32.684C205.668 31.6237 205.45 30.6883 205.015 29.8775C204.58 29.0667 203.974 28.4431 203.197 28.0065C202.451 27.5386 201.581 27.3048 200.585 27.3048C199.591 27.3048 198.705 27.5386 197.928 28.0065C197.182 28.4431 196.592 29.0667 196.157 29.8775C195.722 30.6883 195.504 31.6237 195.504 32.684C195.504 33.7131 195.705 34.633 196.11 35.4438C196.545 36.2545 197.151 36.8939 197.928 37.3616C198.705 37.8294 199.575 38.0633 200.54 38.0633Z" fill="white"/>
<path d="M219.877 44.0974C221.183 44.4405 222.503 44.6119 223.839 44.6119C226.668 44.6119 228.906 43.9571 230.554 42.6473C232.232 41.3377 233.071 39.5758 233.071 37.3617C233.071 35.9272 232.808 34.7733 232.279 33.9003C231.751 32.996 231.067 32.2787 230.228 31.7486C229.388 31.2184 228.502 30.7973 227.57 30.4855C226.637 30.1737 225.751 29.9086 224.913 29.6903C224.073 29.472 223.39 29.2226 222.86 28.9419C222.332 28.6612 222.068 28.287 222.068 27.8193C222.068 27.3827 222.271 27.0552 222.674 26.8369C223.078 26.5875 223.684 26.4629 224.492 26.4629C225.332 26.4629 226.186 26.6343 227.056 26.9774C227.958 27.3203 228.766 27.913 229.481 28.7549L233.538 24.6386C232.513 23.3288 231.176 22.3465 229.528 21.6917C227.912 21.0057 226.14 20.6626 224.213 20.6626C222.379 20.6626 220.778 20.9744 219.411 21.598C218.042 22.2218 216.985 23.0794 216.24 24.1707C215.494 25.231 215.121 26.494 215.121 27.9597C215.121 29.3318 215.385 30.47 215.913 31.3743C216.441 32.2474 217.126 32.9336 217.964 33.4324C218.804 33.9314 219.69 34.3212 220.622 34.6018C221.555 34.8825 222.441 35.1475 223.281 35.3971C224.119 35.6154 224.804 35.8805 225.332 36.1923C225.892 36.473 226.171 36.8939 226.171 37.4552C226.171 37.8918 225.938 38.2347 225.471 38.4843C225.036 38.7337 224.4 38.8585 223.56 38.8585C222.347 38.8585 221.228 38.6402 220.203 38.2036C219.177 37.7359 218.291 37.0966 217.545 36.2858L213.489 40.4021C214.266 41.244 215.199 41.9926 216.287 42.6473C217.405 43.271 218.602 43.7543 219.877 44.0974Z" fill="white"/>
<path d="M246.081 44.565C243.999 44.565 242.149 44.144 240.533 43.3021C238.947 42.4289 237.704 41.2439 236.803 39.7471C235.9 38.2191 235.45 36.4729 235.45 34.5082V21.3174H242.584V34.4146C242.584 35.1942 242.708 35.8647 242.958 36.426C243.237 36.9873 243.641 37.4239 244.169 37.7358C244.699 38.0476 245.335 38.2035 246.081 38.2035C247.138 38.2035 247.977 37.876 248.599 37.2211C249.221 36.5351 249.531 35.5997 249.531 34.4146V21.3174H256.665V34.4614C256.665 36.4572 256.215 38.2191 255.313 39.7471C254.411 41.2439 253.169 42.4289 251.583 43.3021C249.998 44.144 248.164 44.565 246.081 44.565Z" fill="white"/>
<path d="M267.346 21.3175H260.212V44.0506H267.346V30.7662C267.346 29.9866 267.501 29.3317 267.812 28.8016C268.154 28.2715 268.606 27.866 269.164 27.5855C269.725 27.2735 270.361 27.1176 271.076 27.1176C272.102 27.1176 272.956 27.4451 273.64 28.1C274.356 28.7236 274.713 29.6124 274.713 30.7662V44.0506H281.847V30.7662C281.847 29.9866 282.003 29.3317 282.313 28.8016C282.656 28.2715 283.106 27.866 283.666 27.5855C284.225 27.2735 284.863 27.1176 285.577 27.1176C286.604 27.1176 287.458 27.4451 288.141 28.1C288.856 28.7236 289.213 29.6124 289.213 30.7662V44.0506H296.349V29.971C296.349 28.0689 295.944 26.4472 295.136 25.1063C294.358 23.7341 293.286 22.6895 291.919 21.9724C290.582 21.2238 289.043 20.8496 287.302 20.8496C285.53 20.8496 283.929 21.2395 282.5 22.0191C281.571 22.5158 280.759 23.1568 280.064 23.9421C279.415 23.1207 278.627 22.4485 277.696 21.9255C276.454 21.2083 275.04 20.8496 273.455 20.8496C271.776 20.8496 270.269 21.2083 268.932 21.9255C268.35 22.2239 267.822 22.5813 267.346 22.9977V21.3175Z" fill="white"/>
</svg>
