<svg width="64" height="64" viewBox="0 0 64 64" fill="none" xmlns="http://www.w3.org/2000/svg">
<path d="M43.4397 6.66663H21.3793C18.3288 6.66663 16.8036 6.66663 15.6687 7.44908C14.5339 8.23151 14.0853 9.59231 13.1882 12.3139L7.03541 30.9805C5.47402 35.7176 4.69333 38.0861 5.97792 39.7098C7.2625 41.3333 9.91714 41.3333 15.2265 41.3333H37.2869C40.3373 41.3333 41.8623 41.3333 42.9973 40.5509C44.1322 39.7685 44.5807 38.4077 45.4778 35.6861L51.6306 17.0193C53.1919 12.2823 53.9727 9.9138 52.6882 8.29023C51.4034 6.66663 48.7487 6.66663 43.4397 6.66663Z" stroke="#333333" stroke-width="4" stroke-linecap="round" stroke-linejoin="round"/>
<path d="M58.667 16L50.5542 40.5676C49.3716 44.1495 48.7801 45.9404 47.2836 46.9703C45.7873 47.9999 43.7764 47.9999 39.7542 47.9999H10.667" stroke="#333333" stroke-width="4" stroke-linecap="round" stroke-linejoin="round"/>
<path d="M12 18.6667H50.6666M46.6666 29.3334H8" stroke="#333333" stroke-width="4" stroke-linecap="round" stroke-linejoin="round"/>
<path d="M29.3333 49.3333V57.3333M29.3333 57.3333H34.6666M29.3333 57.3333H24" stroke="#333333" stroke-width="4" stroke-linecap="round" stroke-linejoin="round"/>
<path d="M41.3329 6.66663H27.9996L17.333 41.3333H30.6663L41.3329 6.66663Z" stroke="#333333" stroke-width="4" stroke-linecap="round" stroke-linejoin="round"/>
</svg>
