<svg width="64" height="64" viewBox="0 0 64 64" fill="none" xmlns="http://www.w3.org/2000/svg">
<path d="M37.3337 28.977C37.3337 31.925 34.9459 34.3146 32.0003 34.3146C29.0547 34.3146 26.667 31.925 26.667 28.977C26.667 26.029 29.0547 23.6393 32.0003 23.6393C34.9459 23.6393 37.3337 26.029 37.3337 28.977Z" stroke="#333333" stroke-width="4"/>
<path d="M37.3089 28.4916L53.3337 38.3142C51.1246 42.143 46.2318 43.4548 42.4054 41.2444L31.2998 34.2633" stroke="#333333" stroke-width="4" stroke-linecap="round" stroke-linejoin="round"/>
<path d="M35.9565 25.3455V6.31384C31.5381 6.31374 28.0439 9.89862 28.0439 14.3195C28.0439 14.3195 28.0439 21.0396 28.0439 25.3455" stroke="#333333" stroke-width="4" stroke-linecap="round" stroke-linejoin="round"/>
<path d="M26.6857 28.4974L10.667 38.315C12.8761 42.1438 17.7689 43.4556 21.5952 41.2452L32.6982 34.2673" stroke="#333333" stroke-width="4" stroke-linecap="round" stroke-linejoin="round"/>
<path d="M35.8675 44.985L36.7209 50.3775C37.3235 54.6567 37.6249 56.7965 36.9462 58.2282C36.2673 59.6599 34.9515 59.6602 32.3201 59.6602H31.6806C29.0491 59.6602 27.7334 59.6599 27.0545 58.2282C26.3757 56.7965 26.6771 54.6567 27.2798 50.3775L28.1331 44.985" stroke="#333333" stroke-width="4" stroke-linecap="round" stroke-linejoin="round"/>
</svg>
